REM DIRINDEX 1\2\4\8,1\2\4\9,1\2\4\10,1\2\5\11,1\2\5\12,1\2\5\13,1\2\5\14,1\2\5\15,1\3\6\16,1\3\6\17,1\3\6\18,1\3\7\19,1\3\7\20,1\3\7\21,1\3\7\22,1\3\7\23
REM DIRNAME "folder01","folder02","folder03","folder04","folder05","folder06","folder07","folder08","folder09","folder10","folder11","folder12","folder13","folder14","folder15","folder16","folder17","folder18","folder19","folder20","folder21","folder22","folder23"
TITLE ""
FILE "LR_black_phrase_E_S02.mp3" MP3
  TRACK 01 AUDIO
    TITLE "0:"
    INDEX 01 00:00:00
  TRACK 02 AUDIO
    TITLE "16:cjc171_10461"
    INDEX 01 00:00:14
  TRACK 03 AUDIO
    TITLE "0:"
    INDEX 01 00:01:31
  TRACK 04 AUDIO
    TITLE "17:cjc171_10462"
    INDEX 01 00:01:65
  TRACK 05 AUDIO
    TITLE "0:"
    INDEX 01 00:03:67
  TRACK 06 AUDIO
    TITLE "18:cjc171_10463"
    INDEX 01 00:04:47
  TRACK 07 AUDIO
    TITLE "0:"
    INDEX 01 00:06:52
  TRACK 08 AUDIO
    TITLE "16:cjc171_10464"
    INDEX 01 00:07:57
  TRACK 09 AUDIO
    TITLE "0:"
    INDEX 01 00:09:07
  TRACK 10 AUDIO
    TITLE "17:cjc171_10465"
    INDEX 01 00:09:37
  TRACK 11 AUDIO
    TITLE "0:"
    INDEX 01 00:12:06
  TRACK 12 AUDIO
    TITLE "18:cjc171_10466"
    INDEX 01 00:12:57
  TRACK 13 AUDIO
    TITLE "0:"
    INDEX 01 00:15:24
  TRACK 14 AUDIO
    TITLE "16:cjc171_10467"
    INDEX 01 00:16:27
  TRACK 15 AUDIO
    TITLE "0:"
    INDEX 01 00:17:52
  TRACK 16 AUDIO
    TITLE "17:cjc171_10468"
    INDEX 01 00:17:70
  TRACK 17 AUDIO
    TITLE "0:"
    INDEX 01 00:19:49
  TRACK 18 AUDIO
    TITLE "18:cjc171_10469"
    INDEX 01 00:20:23
  TRACK 19 AUDIO
    TITLE "0:"
    INDEX 01 00:22:04
  TRACK 20 AUDIO
    TITLE "16:cjc171_10470"
    INDEX 01 00:23:09
  TRACK 21 AUDIO
    TITLE "0:"
    INDEX 01 00:24:30
  TRACK 22 AUDIO
    TITLE "17:cjc171_10471"
    INDEX 01 00:24:60
  TRACK 23 AUDIO
    TITLE "0:"
    INDEX 01 00:26:59
  TRACK 24 AUDIO
    TITLE "18:cjc171_10472"
    INDEX 01 00:27:37
  TRACK 25 AUDIO
    TITLE "0:"
    INDEX 01 00:29:35
  TRACK 26 AUDIO
    TITLE "16:cjc171_10473"
    INDEX 01 00:30:41
  TRACK 27 AUDIO
    TITLE "0:"
    INDEX 01 00:31:60
  TRACK 28 AUDIO
    TITLE "17:cjc171_10474"
    INDEX 01 00:32:16
  TRACK 29 AUDIO
    TITLE "0:"
    INDEX 01 00:34:43
  TRACK 30 AUDIO
    TITLE "18:cjc171_10475"
    INDEX 01 00:35:18
  TRACK 31 AUDIO
    TITLE "0:"
    INDEX 01 00:37:43
  TRACK 32 AUDIO
    TITLE "16:cjc171_10476"
    INDEX 01 00:38:46
  TRACK 33 AUDIO
    TITLE "0:"
    INDEX 01 00:39:59
  TRACK 34 AUDIO
    TITLE "17:cjc171_10477"
    INDEX 01 00:40:20
  TRACK 35 AUDIO
    TITLE "0:"
    INDEX 01 00:42:58
  TRACK 36 AUDIO
    TITLE "18:cjc171_10478"
    INDEX 01 00:43:34
  TRACK 37 AUDIO
    TITLE "0:"
    INDEX 01 00:45:74
  TRACK 38 AUDIO
    TITLE "16:cjc171_10479"
    INDEX 01 00:47:00
  TRACK 39 AUDIO
    TITLE "0:"
    INDEX 01 00:48:37
  TRACK 40 AUDIO
    TITLE "17:cjc171_10480"
    INDEX 01 00:48:68
  TRACK 41 AUDIO
    TITLE "0:"
    INDEX 01 00:51:02
  TRACK 42 AUDIO
    TITLE "18:cjc171_10481"
    INDEX 01 00:51:55
  TRACK 43 AUDIO
    TITLE "0:"
    INDEX 01 00:53:65
  TRACK 44 AUDIO
    TITLE "16:cjc171_10482"
    INDEX 01 00:54:67
  TRACK 45 AUDIO
    TITLE "0:"
    INDEX 01 00:56:30
  TRACK 46 AUDIO
    TITLE "17:cjc171_10483"
    INDEX 01 00:56:58
  TRACK 47 AUDIO
    TITLE "0:"
    INDEX 01 00:58:67
  TRACK 48 AUDIO
    TITLE "18:cjc171_10484"
    INDEX 01 00:59:50
  TRACK 49 AUDIO
    TITLE "0:"
    INDEX 01 01:01:61
  TRACK 50 AUDIO
    TITLE "16:cjc171_10485"
    INDEX 01 01:02:74
  TRACK 51 AUDIO
    TITLE "0:"
    INDEX 01 01:04:16
  TRACK 52 AUDIO
    TITLE "17:cjc171_10486"
    INDEX 01 01:04:44
  TRACK 53 AUDIO
    TITLE "0:"
    INDEX 01 01:06:60
  TRACK 54 AUDIO
    TITLE "18:cjc171_10487"
    INDEX 01 01:07:40
  TRACK 55 AUDIO
    TITLE "0:"
    INDEX 01 01:09:55
  TRACK 56 AUDIO
    TITLE "16:cjc171_10488"
    INDEX 01 01:10:60
  TRACK 57 AUDIO
    TITLE "0:"
    INDEX 01 01:11:73
  TRACK 58 AUDIO
    TITLE "17:cjc171_10489"
    INDEX 01 01:12:27
  TRACK 59 AUDIO
    TITLE "0:"
    INDEX 01 01:14:58
  TRACK 60 AUDIO
    TITLE "18:cjc171_10490"
    INDEX 01 01:15:39
  TRACK 61 AUDIO
    TITLE "0:"
    INDEX 01 01:17:68
  TRACK 62 AUDIO
    TITLE "16:cjc171_10491"
    INDEX 01 01:18:71
  TRACK 63 AUDIO
    TITLE "0:"
    INDEX 01 01:20:17
  TRACK 64 AUDIO
    TITLE "17:cjc171_10492"
    INDEX 01 01:20:37
  TRACK 65 AUDIO
    TITLE "0:"
    INDEX 01 01:22:53
  TRACK 66 AUDIO
    TITLE "18:cjc171_10493"
    INDEX 01 01:23:25
  TRACK 67 AUDIO
    TITLE "0:"
    INDEX 01 01:25:40
  TRACK 68 AUDIO
    TITLE "16:cjc171_10494"
    INDEX 01 01:26:45
  TRACK 69 AUDIO
    TITLE "0:"
    INDEX 01 01:28:03
  TRACK 70 AUDIO
    TITLE "17:cjc171_10495"
    INDEX 01 01:28:32
  TRACK 71 AUDIO
    TITLE "0:"
    INDEX 01 01:32:32
  TRACK 72 AUDIO
    TITLE "18:cjc171_10496"
    INDEX 01 01:33:12
  TRACK 73 AUDIO
    TITLE "0:"
    INDEX 01 01:37:12
  TRACK 74 AUDIO
    TITLE "16:cjc171_10497"
    INDEX 01 01:38:17
  TRACK 75 AUDIO
    TITLE "0:"
    INDEX 01 01:39:34
  TRACK 76 AUDIO
    TITLE "17:cjc171_10498"
    INDEX 01 01:39:60
  TRACK 77 AUDIO
    TITLE "0:"
    INDEX 01 01:42:21
  TRACK 78 AUDIO
    TITLE "18:cjc171_10499"
    INDEX 01 01:42:74
  TRACK 79 AUDIO
    TITLE "0:"
    INDEX 01 01:45:35
  TRACK 80 AUDIO
    TITLE "16:cjc171_10500"
    INDEX 01 01:46:40
  TRACK 81 AUDIO
    TITLE "0:"
    INDEX 01 01:47:61
  TRACK 82 AUDIO
    TITLE "17:cjc171_10501"
    INDEX 01 01:48:13
  TRACK 83 AUDIO
    TITLE "0:"
    INDEX 01 01:50:03
  TRACK 84 AUDIO
    TITLE "18:cjc171_10502"
    INDEX 01 01:50:54
  TRACK 85 AUDIO
    TITLE "0:"
    INDEX 01 01:52:43
  TRACK 86 AUDIO
    TITLE "16:cjc171_10503"
    INDEX 01 01:53:44
  TRACK 87 AUDIO
    TITLE "0:"
    INDEX 01 01:54:65
  TRACK 88 AUDIO
    TITLE "17:cjc171_10504"
    INDEX 01 01:55:19
  TRACK 89 AUDIO
    TITLE "0:"
    INDEX 01 01:57:58
  TRACK 90 AUDIO
    TITLE "18:cjc171_10505"
    INDEX 01 01:58:33
  TRACK 91 AUDIO
    TITLE "0:"
    INDEX 01 02:00:70
  TRACK 92 AUDIO
    TITLE "16:cjc171_10506"
    INDEX 01 02:02:00
  TRACK 93 AUDIO
    TITLE "0:"
    INDEX 01 02:03:11
  TRACK 94 AUDIO
    TITLE "17:cjc171_10507"
    INDEX 01 02:03:39
  TRACK 95 AUDIO
    TITLE "0:"
    INDEX 01 02:05:69
  TRACK 96 AUDIO
    TITLE "18:cjc171_10508"
    INDEX 01 02:06:49
  TRACK 97 AUDIO
    TITLE "0:"
    INDEX 01 02:09:04
  TRACK 98 AUDIO
    TITLE "16:cjc171_10509"
    INDEX 01 02:10:11
  TRACK 99 AUDIO
    TITLE "0:"
    INDEX 01 02:11:30
  TRACK 100 AUDIO
    TITLE "17:cjc171_10510"
    INDEX 01 02:11:60
  TRACK 101 AUDIO
    TITLE "0:"
    INDEX 01 02:13:68
  TRACK 102 AUDIO
    TITLE "18:cjc171_10511"
    INDEX 01 02:14:48
  TRACK 103 AUDIO
    TITLE "0:"
    INDEX 01 02:16:55
  TRACK 104 AUDIO
    TITLE "16:cjc171_10512"
    INDEX 01 02:17:60
  TRACK 105 AUDIO
    TITLE "0:"
    INDEX 01 02:18:71
  TRACK 106 AUDIO
    TITLE "17:cjc171_10513"
    INDEX 01 02:19:28
  TRACK 107 AUDIO
    TITLE "0:"
    INDEX 01 02:21:36
  TRACK 108 AUDIO
    TITLE "18:cjc171_10514"
    INDEX 01 02:22:18
  TRACK 109 AUDIO
    TITLE "0:"
    INDEX 01 02:24:27
  TRACK 110 AUDIO
    TITLE "16:cjc171_10515"
    INDEX 01 02:25:32
  TRACK 111 AUDIO
    TITLE "0:"
    INDEX 01 02:26:57
  TRACK 112 AUDIO
    TITLE "17:cjc171_10516"
    INDEX 01 02:27:14
  TRACK 113 AUDIO
    TITLE "0:"
    INDEX 01 02:29:63
  TRACK 114 AUDIO
    TITLE "18:cjc171_10517"
    INDEX 01 02:30:43
  TRACK 115 AUDIO
    TITLE "0:"
    INDEX 01 02:33:18
  TRACK 116 AUDIO
    TITLE "16:cjc171_10518"
    INDEX 01 02:34:23
  TRACK 117 AUDIO
    TITLE "0:"
    INDEX 01 02:35:39
  TRACK 118 AUDIO
    TITLE "17:cjc171_10519"
    INDEX 01 02:35:62
  TRACK 119 AUDIO
    TITLE "0:"
    INDEX 01 02:38:31
  TRACK 120 AUDIO
    TITLE "18:cjc171_10520"
    INDEX 01 02:39:13
  TRACK 121 AUDIO
    TITLE "0:"
    INDEX 01 02:41:57
